<svg fill="#70C041" xmlns="http://www.w3.org/2000/svg" xmlns:xlink="http://www.w3.org/1999/xlink" version="1.1" x="0px" y="0px" viewBox="0 0 125 125" style="enable-background:new 0 0 125 125;" xml:space="preserve"><path d="M62.5,105.5c-23.7,0-43-19.3-43-43s19.3-43,43-43s43,19.3,43,43S86.2,105.5,62.5,105.5z M62.5,25.5c-20.4,0-37,16.6-37,37  s16.6,37,37,37s37-16.6,37-37S82.9,25.5,62.5,25.5z M62.3,89.9c-1.6,0-3.2-0.5-4.4-1.5l-5.5-4.2c-2.4-1.7-4.1-4.3-4.6-7.2l-4.7-22.2  c-0.6-3.9,0.8-7.8,3.8-10.3l8.3-6.8c4.1-3.4,9.9-3.4,14,0l8.3,6.8c3,2.5,4.5,6.4,3.9,10.3l-3.7,22.1c-0.5,3-2.2,5.6-4.7,7.3  l-6.5,4.4C65.2,89.4,63.8,89.9,62.3,89.9z M49,53.8l4.7,22.2c0.2,1.4,1,2.6,2.1,3.3l0.1,0.1l5.6,4.2c0.5,0.3,1.1,0.3,1.6,0l6.5-4.4  c1.1-0.8,1.9-2,2.1-3.3l3.7-22.1c0.3-1.8-0.4-3.5-1.7-4.7l-8.3-6.8c-1.9-1.5-4.5-1.5-6.4,0l-8.3,6.8C49.4,50.2,48.7,52,49,53.8z   M62.2,47.9c3.8,0,6.9,3.1,6.9,6.9s-3.1,6.9-6.9,6.9s-6.9-3.1-6.9-6.9S58.3,47.9,62.2,47.9z M81.6,89.9H62.2c-1.7,0-3-1.3-3-3  s1.3-3,3-3h17l1.4-6.9L74,72.2c-1.3-1-1.6-2.9-0.6-4.2c1-1.3,2.8-1.6,4.1-0.7l8.2,5.8c1,0.7,1.4,1.9,1.2,3l-2.3,11.3  C84.3,88.9,83,89.9,81.6,89.9z M62.8,89.9H43.4c-1.4,0-2.7-1-2.9-2.4l-2.3-11.2c-0.2-1.1,0.2-2.3,1.2-3l8.2-5.8  c1.2-1.1,3.1-1,4.2,0.3c1.1,1.2,1,3.1-0.3,4.2c-0.2,0.1-0.3,0.3-0.5,0.4l-6.6,4.7l1.4,6.9h17c1.7,0,3,1.3,3,3S64.5,89.9,62.8,89.9  L62.8,89.9z"></path></svg>